<svg version="1.1" id="Layer_1" xmlns="http://www.w3.org/2000/svg" xmlns:xlink="http://www.w3.org/1999/xlink" x="0px" y="0px"
	 width="100%" viewBox="0 0 339 351" enable-background="new 0 0 339 351" xml:space="preserve">
<path fill="#0153C8" opacity="1.000000" stroke="none"
	d="
M1.000000,234.000000
	C1.000000,234.000000 1.000000,233.500000 1.361550,233.272034
	C37.601112,214.507202 73.479126,195.970337 110.134270,177.031952
	C102.597862,173.133362 96.129555,169.762650 89.639542,166.434250
	C60.096367,151.283005 30.547087,136.143631 1.000000,121.000000
	C1.000000,121.000000 1.000000,120.500000 1.338652,120.173264
	C13.124720,99.618980 24.572134,79.391434 36.080803,59.055653
	C70.925209,81.141342 105.270760,102.910835 140.524521,125.255997
	C139.811569,109.110390 139.158035,94.314117 138.504852,79.517830
	C137.366013,53.719223 136.227356,27.920607 135.549484,2.073994
	C159.275269,2.098811 182.540207,2.171631 205.807831,2.669543
	C203.936554,43.532612 202.062592,83.970589 200.146057,125.327522
	C235.119781,102.914322 269.226318,81.056854 303.526398,59.075367
	C315.564240,79.590096 327.419647,99.793900 339.158875,120.342712
	C337.495117,121.627815 335.997772,122.665298 334.392487,123.493622
	C301.636261,140.395859 268.866150,157.271210 236.106400,174.166626
	C234.552551,174.967972 233.068680,175.905014 231.011780,177.090286
	C233.160690,178.281540 234.683258,179.178131 236.251099,179.986938
	C269.156128,196.961655 302.071259,213.916840 334.960052,230.922928
	C336.515106,231.726990 337.845367,232.965683 339.070374,234.285370
	C327.141235,254.275238 315.422089,273.981689 303.567413,293.916016
	C269.091797,271.823975 234.954849,249.948959 200.186844,227.669540
	C202.071487,269.285980 203.913498,309.960999 205.763443,350.810974
	C181.959274,350.810974 158.599976,350.810974 134.998520,350.810974
	C136.848526,309.789154 138.681091,269.154236 140.551849,227.671997
	C105.226662,250.071503 70.847527,271.871124 36.195141,293.844025
	C35.070702,292.038452 34.071869,290.537964 33.175114,288.978760
	C23.468096,272.100952 13.788620,255.207275 4.062314,238.340607
	C3.181442,236.813049 2.027259,235.443130 1.000000,234.000000
z"/>
<path fill="#F3EAE2" opacity="1.000000" stroke="none"
	d="
M1.000000,234.468658
	C2.027259,235.443130 3.181442,236.813049 4.062314,238.340607
	C13.788620,255.207275 23.468096,272.100952 33.175114,288.978760
	C34.071869,290.537964 35.070702,292.038452 36.195141,293.844025
	C70.847527,271.871124 105.226662,250.071503 140.551849,227.671997
	C138.681091,269.154236 136.848526,309.789154 134.998520,350.810974
	C158.599976,350.810974 181.959274,350.810974 205.763443,350.810974
	C203.913498,309.960999 202.071487,269.285980 200.186844,227.669540
	C234.954849,249.948959 269.091797,271.823975 303.567413,293.916016
	C315.422089,273.981689 327.141235,254.275238 339.250275,234.286407
	C339.640167,234.004028 340.000000,234.000000 340.000000,234.000000
	C340.000000,273.303406 340.000000,312.606781 340.000000,351.955078
	C227.115952,351.955078 114.231888,351.955078 1.000000,351.955078
	C1.000000,312.979797 1.000000,273.958557 1.000000,234.468658
z"/>
<path fill="#F3EBE2" opacity="1.000000" stroke="none"
	d="
M339.275024,119.997704
	C327.419647,99.793900 315.564240,79.590096 303.526398,59.075367
	C269.226318,81.056854 235.119781,102.914322 200.146057,125.327522
	C202.062592,83.970589 203.936554,43.532612 205.866135,2.359933
	C205.947861,1.416820 205.973938,1.208410 206.000000,1.000000
	C250.589310,1.000000 295.178619,1.000000 340.000000,1.000000
	C340.000000,40.353924 340.000000,79.708305 339.818756,119.528763
	C339.637512,119.994850 339.275024,119.997704 339.275024,119.997704
z"/>
<path fill="#F3EBE2" opacity="1.000000" stroke="none"
	d="
M135.088623,2.121996
	C136.227356,27.920607 137.366013,53.719223 138.504852,79.517830
	C139.158035,94.314117 139.811569,109.110390 140.524521,125.255997
	C105.270760,102.910835 70.925209,81.141342 36.080803,59.055653
	C24.572134,79.391434 13.124720,99.618980 1.338652,119.923264
	C1.000000,80.402031 1.000000,40.804058 1.000000,1.000000
	C45.354015,1.000000 89.708351,1.000000 134.542267,1.281386
	C135.044113,1.749180 135.066360,1.935588 135.088623,2.121996
z"/>
<path fill="#F2EAE2" opacity="1.000000" stroke="none"
	d="
M339.158875,120.342712
	C339.275024,119.997704 339.637512,119.994850 339.818756,119.997421
	C340.000000,157.687561 340.000000,195.375122 340.000000,233.531342
	C340.000000,234.000000 339.640167,234.004028 339.460266,234.002991
	C337.845367,232.965683 336.515106,231.726990 334.960052,230.922928
	C302.071259,213.916840 269.156128,196.961655 236.251099,179.986938
	C234.683258,179.178131 233.160690,178.281540 231.011780,177.090286
	C233.068680,175.905014 234.552551,174.967972 236.106400,174.166626
	C268.866150,157.271210 301.636261,140.395859 334.392487,123.493622
	C335.997772,122.665298 337.495117,121.627815 339.158875,120.342712
z"/>
<path fill="#F3EAE2" opacity="1.000000" stroke="none"
	d="
M1.000000,121.468658
	C30.547087,136.143631 60.096367,151.283005 89.639542,166.434250
	C96.129555,169.762650 102.597862,173.133362 110.134270,177.031952
	C73.479126,195.970337 37.601112,214.507202 1.361550,233.022034
	C1.000000,195.979111 1.000000,158.958206 1.000000,121.468658
z"/>
<path fill="#AABCDA" opacity="1.000000" stroke="none"
	d="
M135.549469,2.073994
	C135.066360,1.935588 135.044113,1.749180 135.010925,1.281386
	C158.354233,1.000000 181.708450,1.000000 205.531342,1.000000
	C205.973938,1.208410 205.947861,1.416820 205.863464,1.934841
	C182.540207,2.171631 159.275269,2.098811 135.549469,2.073994
z"/>
</svg>